<?xml version="1.0" encoding="UTF-8" standalone="no"?>
<svg
   xmlns:dc="http://purl.org/dc/elements/1.1/"
   xmlns:cc="http://creativecommons.org/ns#"
   xmlns:rdf="http://www.w3.org/1999/02/22-rdf-syntax-ns#"
   xmlns:svg="http://www.w3.org/2000/svg"
   xmlns="http://www.w3.org/2000/svg"
   xmlns:sodipodi="http://sodipodi.sourceforge.net/DTD/sodipodi-0.dtd"
   xmlns:inkscape="http://www.inkscape.org/namespaces/inkscape"
   enable-background="new 0 0 141.732 141.732"
   height="141.732px"
   id="Livello_1"
   version="1.1"
   viewBox="0 0 141.732 141.732"
   width="141.732px"
   xml:space="preserve"
   inkscape:version="0.91 r13725"
   sodipodi:docname="book.svg"><metadata
     id="metadata11"><rdf:RDF><cc:Work
         rdf:about=""><dc:format>image/svg+xml</dc:format><dc:type
           rdf:resource="http://purl.org/dc/dcmitype/StillImage" /><dc:title></dc:title></cc:Work></rdf:RDF></metadata><defs
     id="defs9" /><sodipodi:namedview
     pagecolor="#ffffff"
     bordercolor="#666666"
     borderopacity="1"
     objecttolerance="10"
     gridtolerance="10"
     guidetolerance="10"
     inkscape:pageopacity="0"
     inkscape:pageshadow="2"
     inkscape:window-width="1920"
     inkscape:window-height="1005"
     id="namedview7"
     showgrid="false"
     inkscape:zoom="1.6651145"
     inkscape:cx="-41.738871"
     inkscape:cy="70.865997"
     inkscape:window-x="-9"
     inkscape:window-y="-9"
     inkscape:window-maximized="1"
     inkscape:current-layer="Livello_1" /><g
     id="Livello_45"
     style="fill:#ffffff;fill-opacity:1;stroke:#000000;stroke-opacity:1"><path
       d="M119.247,130.347V3.722c0-2.057-1.666-3.723-3.723-3.723H33.649c-0.032,0.001-0.064,0.01-0.101,0.011   c-0.134,0.005-0.267,0.018-0.396,0.036c-0.777,0.104-1.534,0.442-2.135,1.043l-7.443,7.442c-0.727,0.729-1.09,1.681-1.09,2.632   v126.534c0,2.056,1.666,3.722,3.722,3.722h81.875c2.057,0.001,3.723-1.666,3.723-3.722V11.164c0-2.055-1.666-3.721-3.723-3.721   l0.002-0.001H29.928l3.724-3.722l3.778,0.001h74.374h0.264c1.969,0,3.572,1.525,3.709,3.458h0.016v126.875   C117.721,133.919,119.247,132.312,119.247,130.347"
       id="path4"
       style="fill:#ffffff;fill-opacity:1;stroke:#000000;stroke-opacity:1" /></g><g
     id="Livello_1_1_" /></svg>