<?xml version="1.0" encoding="UTF-8" standalone="no"?>
<svg
   xmlns:dc="http://purl.org/dc/elements/1.1/"
   xmlns:cc="http://creativecommons.org/ns#"
   xmlns:rdf="http://www.w3.org/1999/02/22-rdf-syntax-ns#"
   xmlns:svg="http://www.w3.org/2000/svg"
   xmlns="http://www.w3.org/2000/svg"
   xmlns:sodipodi="http://sodipodi.sourceforge.net/DTD/sodipodi-0.dtd"
   xmlns:inkscape="http://www.inkscape.org/namespaces/inkscape"
   enable-background="new -0.709 -0.709 141.732 141.732"
   height="141.732px"
   id="Livello_1"
   version="1.1"
   viewBox="-0.709 -0.709 141.732 141.732"
   width="141.732px"
   xml:space="preserve"
   inkscape:version="0.91 r13725"
   sodipodi:docname="close.svg"><metadata
     id="metadata11"><rdf:RDF><cc:Work
         rdf:about=""><dc:format>image/svg+xml</dc:format><dc:type
           rdf:resource="http://purl.org/dc/dcmitype/StillImage" /><dc:title></dc:title></cc:Work></rdf:RDF></metadata><defs
     id="defs9" /><sodipodi:namedview
     pagecolor="#ffffff"
     bordercolor="#666666"
     borderopacity="1"
     objecttolerance="10"
     gridtolerance="10"
     guidetolerance="10"
     inkscape:pageopacity="0"
     inkscape:pageshadow="2"
     inkscape:window-width="1920"
     inkscape:window-height="1005"
     id="namedview7"
     showgrid="false"
     inkscape:zoom="1.6651145"
     inkscape:cx="-41.738871"
     inkscape:cy="70.865997"
     inkscape:window-x="-9"
     inkscape:window-y="-9"
     inkscape:window-maximized="1"
     inkscape:current-layer="Livello_1" /><g
     id="Livello_102"
     style="fill:#ffffff;stroke:#000000;stroke-opacity:1;fill-opacity:1"><path
       d="M108.319,108.319c-2.106,2.107-5.523,2.106-7.632-0.001l-0.003-0.003L70.159,77.79L39.63,108.318   c-2.106,2.108-5.523,2.107-7.634,0c-2.104-2.106-2.105-5.523,0-7.633l30.528-30.528l-30.54-30.541   c-2.106-2.104-2.106-5.521,0-7.631c2.105-2.107,5.522-2.107,7.633-0.001l30.541,30.541l30.528-30.527   c2.105-2.105,5.523-2.105,7.633,0c2.109,2.106,2.107,5.524,0,7.633L77.791,70.157l30.527,30.528   C110.427,102.794,110.427,106.212,108.319,108.319 M119.767,119.767c27.396-27.397,27.396-71.818,0-99.217   C92.37-6.849,47.947-6.85,20.547,20.548c-27.397,27.398-27.396,71.819,0.001,99.22C47.947,147.166,92.368,147.165,119.767,119.767"
       id="path4"
       style="fill:#ffffff;stroke:#000000;stroke-opacity:1;fill-opacity:1" /></g><g
     id="Livello_1_1_" /></svg>