<?xml version="1.0" encoding="UTF-8" standalone="no"?>
<svg
   xmlns:dc="http://purl.org/dc/elements/1.1/"
   xmlns:cc="http://creativecommons.org/ns#"
   xmlns:rdf="http://www.w3.org/1999/02/22-rdf-syntax-ns#"
   xmlns:svg="http://www.w3.org/2000/svg"
   xmlns="http://www.w3.org/2000/svg"
   xmlns:sodipodi="http://sodipodi.sourceforge.net/DTD/sodipodi-0.dtd"
   xmlns:inkscape="http://www.inkscape.org/namespaces/inkscape"
   enable-background="new 0 0 141.732 141.732"
   height="141.732px"
   id="Livello_1"
   version="1.1"
   viewBox="0 0 141.732 141.732"
   width="141.732px"
   xml:space="preserve"
   inkscape:version="0.91 r13725"
   sodipodi:docname="computer.svg"><metadata
     id="metadata10"><rdf:RDF><cc:Work
         rdf:about=""><dc:format>image/svg+xml</dc:format><dc:type
           rdf:resource="http://purl.org/dc/dcmitype/StillImage" /><dc:title></dc:title></cc:Work></rdf:RDF></metadata><defs
     id="defs8" /><sodipodi:namedview
     pagecolor="#ffffff"
     bordercolor="#666666"
     borderopacity="1"
     objecttolerance="10"
     gridtolerance="10"
     guidetolerance="10"
     inkscape:pageopacity="0"
     inkscape:pageshadow="2"
     inkscape:window-width="1920"
     inkscape:window-height="1005"
     id="namedview6"
     showgrid="false"
     inkscape:zoom="1.6651145"
     inkscape:cx="70.865997"
     inkscape:cy="70.865997"
     inkscape:window-x="-9"
     inkscape:window-y="-9"
     inkscape:window-maximized="1"
     inkscape:current-layer="Livello_1" /><g
     id="Livello_11"
     style="stroke:#000000;stroke-opacity:1;fill:#ffffff;fill-opacity:1"><path
       id="svg_1"
       d="m92.014999,93.895004l-88.334999,0l0,-59.771004l88.334999,0l0,59.771004zm3.681,1.864998l0,0l0,-63.502003c0,-1.035999 -0.822998,-1.868 -1.838997,-1.868l-92.017002,0c-1.016,0.001001 -1.84,0.833 -1.84,1.868l0,63.502003c0,1.032997 0.825,1.866997 1.84,1.866997l34.966999,0l0,11.208l-14.723,0c-1.017,0 -1.838999,0.834 -1.838999,1.868004c0,1.030998 0.823999,1.867996 1.838999,1.867996l0.000999,0l51.528,0c1.016998,0 1.841003,-0.836998 1.841003,-1.867996c0,-1.034004 -0.825005,-1.868004 -1.841003,-1.868004l-14.723,0l0,-11.208l34.968002,0c1.016998,0 1.837997,-0.834999 1.837997,-1.866997m43.218994,-36.271004l-29.054993,0l0,-5.897999l29.054993,0l0,5.897999zm0,-11.793999l-29.054993,0l0,-5.900002l29.054993,0l0,5.900002zm-16.816994,35.583c0,-1.285995 1.027,-2.324005 2.290001,-2.324005c1.264999,0 2.292999,1.03801 2.292999,2.324005c0,1.285004 -1.028,2.326004 -2.292999,2.326004c-1.262001,0 -2.290001,-1.042007 -2.290001,-2.326004m0.567001,6.755005c0,-0.966003 0.770996,-1.749008 1.723,-1.749008c0.953003,0 1.724998,0.782005 1.724998,1.749008c0,0.967995 -0.771996,1.753998 -1.724998,1.753998c-0.952003,-0.001007 -1.723,-0.786003 -1.723,-1.753998m19.159996,19.587997l0,-76.673004c0,-1.627998 -1.302002,-2.948997 -2.90799,-2.948997l-29.054008,0c-1.603996,0 -2.904999,1.323997 -2.904999,2.948997l0,76.672005c0,1.629997 1.301003,2.948997 2.904999,2.948997l29.054008,0c1.604996,0.000999 2.90799,-1.318001 2.90799,-2.947998"
       style="stroke:#000000;stroke-opacity:1;fill:#ffffff;fill-opacity:1" /></g><g
     id="Livello_1_1_" /></svg>