<?xml version="1.0" encoding="UTF-8" standalone="no"?>
<svg
   xmlns:dc="http://purl.org/dc/elements/1.1/"
   xmlns:cc="http://creativecommons.org/ns#"
   xmlns:rdf="http://www.w3.org/1999/02/22-rdf-syntax-ns#"
   xmlns:svg="http://www.w3.org/2000/svg"
   xmlns="http://www.w3.org/2000/svg"
   xmlns:sodipodi="http://sodipodi.sourceforge.net/DTD/sodipodi-0.dtd"
   xmlns:inkscape="http://www.inkscape.org/namespaces/inkscape"
   enable-background="new -0.891 -22.184 141.732 141.732"
   height="141.732px"
   id="Livello_1"
   version="1.1"
   viewBox="-0.891 -22.184 141.732 141.732"
   width="141.732px"
   xml:space="preserve"
   inkscape:version="0.91 r13725"
   sodipodi:docname="image.svg"><metadata
     id="metadata11"><rdf:RDF><cc:Work
         rdf:about=""><dc:format>image/svg+xml</dc:format><dc:type
           rdf:resource="http://purl.org/dc/dcmitype/StillImage" /><dc:title></dc:title></cc:Work></rdf:RDF></metadata><defs
     id="defs9" /><sodipodi:namedview
     pagecolor="#ffffff"
     bordercolor="#666666"
     borderopacity="1"
     objecttolerance="10"
     gridtolerance="10"
     guidetolerance="10"
     inkscape:pageopacity="0"
     inkscape:pageshadow="2"
     inkscape:window-width="1920"
     inkscape:window-height="1005"
     id="namedview7"
     showgrid="false"
     inkscape:zoom="1.6651145"
     inkscape:cx="70.865997"
     inkscape:cy="70.865997"
     inkscape:window-x="-9"
     inkscape:window-y="-9"
     inkscape:window-maximized="1"
     inkscape:current-layer="Livello_1" /><g
     id="Livello_46"
     style="stroke:#000000;stroke-opacity:1;fill:#ffffff;fill-opacity:1"><path
       d="M32.909,24.472c0-5.621-4.535-10.181-10.129-10.181c-5.594,0-10.127,4.56-10.127,10.181S17.186,34.65,22.78,34.65   C28.374,34.65,32.909,30.094,32.909,24.472 M9.717,87.969c0,0-0.098,0.134-0.239,0.354h120.996   c-0.011-0.013-0.019-0.021-0.027-0.037L89.151,32.069c0,0-4.896-6.664-9.789,0L53.807,66.86l-9.4-12.805c0,0-4.895-6.662-9.787,0   L9.717,87.969z M134.567,91.956H5.382V5.409h129.186V91.956L134.567,91.956z M139.951,94.66V2.705c0-1.494-1.205-2.705-2.69-2.705   H2.692C1.206,0,0,1.211,0,2.705V94.66c0,1.494,1.205,2.705,2.691,2.705h134.57C138.746,97.365,139.951,96.154,139.951,94.66"
       id="path4"
       style="stroke:#000000;stroke-opacity:1;fill:#ffffff;fill-opacity:1" /></g><g
     id="Livello_1_1_" /></svg>