<?xml version="1.0" ?><!DOCTYPE svg  PUBLIC '-//W3C//DTD SVG 1.1//EN'  'http://www.w3.org/Graphics/SVG/1.1/DTD/svg11.dtd'><svg enable-background="new 0 0 141.732 141.732" height="141.732px" id="Livello_1" version="1.1" viewBox="0 0 141.732 141.732" width="141.732px" xml:space="preserve" xmlns="http://www.w3.org/2000/svg" xmlns:xlink="http://www.w3.org/1999/xlink"><g id="Livello_17"><g><path d="M119.557,135.703h0.014V28.998L91.207,3.297h-0.049h-5.789H24.895    c-1.509,0-2.734,1.109-2.734,2.479c0,0.043,0.004,0.084,0.007,0.126h-0.007V135.83h0.007c-0.003,0.042-0.007,0.083-0.007,0.126    c0,1.369,1.228,2.479,2.734,2.479c0.047,0,0.092-0.003,0.139-0.011v0.008h91.662v-0.008c0.046,0.008,0.092,0.011,0.139,0.011    c1.514,0,2.734-1.11,2.734-2.479C119.569,135.87,119.564,135.786,119.557,135.703z" fill="none" stroke="#000000" stroke-width="5"/><path d="M93.718,3.297h-0.08v20.454h0.008c-0.002,0.037-0.008,0.073-0.008,0.111    c0,1.209,1.113,2.188,2.492,2.188c0.043,0,0.086-0.004,0.127-0.006v0.035h23.312v-0.072L93.718,3.297z" fill="none" stroke="#000000" stroke-width="5"/><path d="M25.107,117.086c0,1.567,1.307,2.84,2.919,2.84h29.613c1.608,0,2.919-1.271,2.919-2.84c0-1.566-1.311-2.84-2.919-2.84    H28.026C26.414,114.246,25.107,115.517,25.107,117.086 M25.051,106.021c0,1.484,1.338,2.691,2.984,2.691h85.656    c1.648,0,2.986-1.207,2.986-2.691c0-1.488-1.338-2.695-2.986-2.695H28.037C26.388,103.325,25.051,104.532,25.051,106.021     M73.56,25.271c0-1.52-1.279-2.747-2.875-2.79v-0.004H28.01c-1.637,0-2.959,1.251-2.959,2.794s1.322,2.794,2.959,2.794h42.678    v-0.004C72.281,28.018,73.56,26.787,73.56,25.271 M28.157,33.257c-1.716,0-3.104,1.206-3.104,2.694s1.39,2.696,3.104,2.696h31.521    c1.715,0,3.104-1.207,3.104-2.695s-1.391-2.694-3.104-2.694L28.157,33.257L28.157,33.257z M116.68,52.121    c0-1.488-1.336-2.694-2.985-2.694H28.037c-1.646,0-2.984,1.206-2.984,2.694s1.338,2.694,2.984,2.694h85.656    C115.344,54.816,116.68,53.609,116.68,52.121 M116.68,62.901c0-1.487-1.336-2.694-2.985-2.694H28.037    c-1.646,0-2.984,1.207-2.984,2.694c0,1.488,1.338,2.691,2.984,2.691h85.656C115.344,65.595,116.68,64.391,116.68,62.901     M116.68,73.682c0-1.488-1.336-2.695-2.985-2.695H28.037c-1.646,0-2.984,1.207-2.984,2.695c0,1.484,1.338,2.691,2.984,2.691    h85.656C115.344,76.376,116.68,75.169,116.68,73.682 M116.68,84.461c0-1.485-1.336-2.691-2.985-2.691H28.037    c-1.646,0-2.984,1.206-2.984,2.691c0,1.488,1.338,2.695,2.984,2.695h85.656C115.344,87.156,116.68,85.949,116.68,84.461     M116.68,95.177c0-1.449-1.336-2.631-2.985-2.631H28.037c-1.646,0-2.984,1.182-2.984,2.631c0,1.453,1.338,2.635,2.984,2.635    h85.656C115.344,97.808,116.68,96.63,116.68,95.177"/></g></g><g id="Livello_1_1_"/></svg>