<?xml version="1.0" ?><!DOCTYPE svg  PUBLIC '-//W3C//DTD SVG 1.1//EN'  'http://www.w3.org/Graphics/SVG/1.1/DTD/svg11.dtd'><svg enable-background="new 0 0 141.732 141.732" height="141.732px" id="Livello_1" version="1.1" viewBox="0 0 141.732 141.732" width="141.732px" xml:space="preserve" xmlns="http://www.w3.org/2000/svg" xmlns:xlink="http://www.w3.org/1999/xlink"><g id="Livello_45"><path d="M119.247,130.347V3.722c0-2.057-1.666-3.723-3.723-3.723H33.649c-0.032,0.001-0.064,0.01-0.101,0.011   c-0.134,0.005-0.267,0.018-0.396,0.036c-0.777,0.104-1.534,0.442-2.135,1.043l-7.443,7.442c-0.727,0.729-1.09,1.681-1.09,2.632   v126.534c0,2.056,1.666,3.722,3.722,3.722h81.875c2.057,0.001,3.723-1.666,3.723-3.722V11.164c0-2.055-1.666-3.721-3.723-3.721   l0.002-0.001H29.928l3.724-3.722l3.778,0.001h74.374h0.264c1.969,0,3.572,1.525,3.709,3.458h0.016v126.875   C117.721,133.919,119.247,132.312,119.247,130.347"/></g><g id="Livello_1_1_"/></svg>