<?xml version="1.0" ?><!DOCTYPE svg  PUBLIC '-//W3C//DTD SVG 1.1//EN'  'http://www.w3.org/Graphics/SVG/1.1/DTD/svg11.dtd'><svg enable-background="new 0 0 141.732 141.732" height="141.732px" id="Livello_1" version="1.1" viewBox="0 0 141.732 141.732" width="141.732px" xml:space="preserve" xmlns="http://www.w3.org/2000/svg" xmlns:xlink="http://www.w3.org/1999/xlink"><g id="Livello_11"><path id="svg_1" d="m92.014999,93.895004l-88.334999,0l0,-59.771004l88.334999,0l0,59.771004zm3.681,1.864998l0,0l0,-63.502003c0,-1.035999 -0.822998,-1.868 -1.838997,-1.868l-92.017002,0c-1.016,0.001001 -1.84,0.833 -1.84,1.868l0,63.502003c0,1.032997 0.825,1.866997 1.84,1.866997l34.966999,0l0,11.208l-14.723,0c-1.017,0 -1.838999,0.834 -1.838999,1.868004c0,1.030998 0.823999,1.867996 1.838999,1.867996l0.000999,0l51.528,0c1.016998,0 1.841003,-0.836998 1.841003,-1.867996c0,-1.034004 -0.825005,-1.868004 -1.841003,-1.868004l-14.723,0l0,-11.208l34.968002,0c1.016998,0 1.837997,-0.834999 1.837997,-1.866997m43.218994,-36.271004l-29.054993,0l0,-5.897999l29.054993,0l0,5.897999zm0,-11.793999l-29.054993,0l0,-5.900002l29.054993,0l0,5.900002zm-16.816994,35.583c0,-1.285995 1.027,-2.324005 2.290001,-2.324005c1.264999,0 2.292999,1.03801 2.292999,2.324005c0,1.285004 -1.028,2.326004 -2.292999,2.326004c-1.262001,0 -2.290001,-1.042007 -2.290001,-2.326004m0.567001,6.755005c0,-0.966003 0.770996,-1.749008 1.723,-1.749008c0.953003,0 1.724998,0.782005 1.724998,1.749008c0,0.967995 -0.771996,1.753998 -1.724998,1.753998c-0.952003,-0.001007 -1.723,-0.786003 -1.723,-1.753998m19.159996,19.587997l0,-76.673004c0,-1.627998 -1.302002,-2.948997 -2.90799,-2.948997l-29.054008,0c-1.603996,0 -2.904999,1.323997 -2.904999,2.948997l0,76.672005c0,1.629997 1.301003,2.948997 2.904999,2.948997l29.054008,0c1.604996,0.000999 2.90799,-1.318001 2.90799,-2.947998"/></g><g id="Livello_1_1_"/></svg>